<svg xmlns:inkscape="http://www.inkscape.org/namespaces/inkscape" xmlns:sodipodi="http://sodipodi.sourceforge.net/DTD/sodipodi-0.dtd" xmlns:xlink="http://www.w3.org/1999/xlink" xmlns="http://www.w3.org/2000/svg" xmlns:svg="http://www.w3.org/2000/svg" version="1.1" id="svg2" width="1000" height="666.66669" viewBox="0 0 1000 666.66669" sodipodi:docname="7450544.eps">
  <defs id="defs6">
    <clipPath clipPathUnits="userSpaceOnUse" id="clipPath18">
      <path d="M 7500,0 H 0 V 5000 H 7500 V 0 M 2605.43,617.242 c -48.71,0 -88.2,-39.504 -88.2,-88.222 v -76.489 h 638.76 v 76.489 c 0,48.718 -39.5,88.222 -88.22,88.222 h -462.34 m 1699.33,194.289 c -37.2,0 -67.35,-30.14 -67.35,-67.332 V 609.711 h 2806 v 134.488 c 0,37.192 -30.15,67.332 -67.34,67.332 H 4304.76 M 2517.42,1832.14 c -0.13,-2.08 -0.19,-4.18 -0.19,-6.29 V 719.891 c 0,-56.7 45.96,-102.649 102.66,-102.649 h 433.43 c 56.7,0 102.67,45.949 102.67,102.649 V 1256.88 H 4403.15 V 935.762 H 6877.67 V 2468.68 c 0,30.17 -24.45,54.62 -54.61,54.62 H 5647.28 v 1544.86 c 0,48.25 -39.12,87.38 -87.38,87.38 H 2011.96 c -48.26,0 -87.38,-39.13 -87.38,-87.38 v -152.92 0 -858.37 H 627.406 c -28.484,0 -51.566,-23.09 -51.566,-51.57 V 971.398 c 0,-28.476 23.082,-51.578 51.566,-51.578 H 2152.09 c 28.49,0 51.57,23.102 51.57,51.578 v 860.742 h 313.76 M 628.535,919.82 c -29.105,0 -52.695,-23.582 -52.695,-52.691 V 750.082 h 1627.82 v 117.047 c 0,29.109 -23.59,52.691 -52.69,52.691 H 628.535 m 3617.275,15.942 c -4.64,0 -8.4,-3.762 -8.4,-8.403 V 874.32 c 0,-34.679 28.11,-62.789 62.79,-62.789 h 2680.42 c 34.68,0 62.79,28.11 62.79,62.789 v 53.039 c 0,4.641 -3.76,8.403 -8.4,8.403 h -2789.2 m 157.34,500.528 H 3155.99 v 389.56 c 0,2.11 -0.07,4.21 -0.19,6.29 h 1247.35 v -395.85" id="path16"/>
    </clipPath>
    <clipPath clipPathUnits="userSpaceOnUse" id="clipPath36">
      <path d="m 4231.93,1436.29 h -892 l 56.13,422.56 h 779.75 z" id="path34"/>
    </clipPath>
    <linearGradient x1="0" y1="0" x2="1" y2="0" gradientUnits="userSpaceOnUse" gradientTransform="matrix(0,422.553,422.553,0,3785.93,1436.29)" spreadMethod="pad" id="linearGradient48">
      <stop style="stop-opacity:1;stop-color:#aeaeae" offset="0" id="stop38"/>
      <stop style="stop-opacity:1;stop-color:#dedede" offset="0.4304951" id="stop40"/>
      <stop style="stop-opacity:1;stop-color:#dedede" offset="0.565705" id="stop42"/>
      <stop style="stop-opacity:1;stop-color:#dedede" offset="0.73283361" id="stop44"/>
      <stop style="stop-opacity:1;stop-color:#5d5d5d" offset="1" id="stop46"/>
    </linearGradient>
    <clipPath clipPathUnits="userSpaceOnUse" id="clipPath58">
      <path d="m 3155.99,1365.51 h 1247.16 v 70.7773 H 3155.99 Z" id="path56"/>
    </clipPath>
    <radialGradient fx="0" fy="0" cx="0" cy="0" r="1" gradientUnits="userSpaceOnUse" gradientTransform="matrix(511.292,0,0,-233.466,3785.93,1400.9)" spreadMethod="pad" id="radialGradient66">
      <stop style="stop-opacity:1;stop-color:#dedede" offset="0" id="stop60"/>
      <stop style="stop-opacity:1;stop-color:#dedede" offset="0.70834852" id="stop62"/>
      <stop style="stop-opacity:1;stop-color:#aeaeae" offset="1" id="stop64"/>
    </radialGradient>
    <clipPath clipPathUnits="userSpaceOnUse" id="clipPath76">
      <path d="M 4403.15,1832.14 H 3155.8 c -3.25,53.77 -47.89,96.37 -102.48,96.37 h -433.43 c -54.59,0 -99.23,-42.6 -102.47,-96.37 h -313.76 v 152.92 h 2199.49 v -152.92" id="path74"/>
    </clipPath>
    <radialGradient fx="0" fy="0" cx="0" cy="0" r="1" gradientUnits="userSpaceOnUse" gradientTransform="matrix(1523.54,0,0,-1523.54,3785.93,2917.38)" spreadMethod="pad" id="radialGradient84">
      <stop style="stop-opacity:1;stop-color:#dedede" offset="0" id="stop78"/>
      <stop style="stop-opacity:1;stop-color:#dedede" offset="0.70834852" id="stop80"/>
      <stop style="stop-opacity:1;stop-color:#aeaeae" offset="1" id="stop82"/>
    </radialGradient>
    <clipPath clipPathUnits="userSpaceOnUse" id="clipPath94">
      <path d="M 4403.15,1985.06 H 2203.66 v 87.38 h 2199.49 v -87.38 M 5647.28,2523.3 H 5559.9 V 4068.16 H 2011.96 V 3056.87 h -87.38 v 858.37 152.92 c 0,48.25 39.12,87.38 87.38,87.38 H 5559.9 c 48.26,0 87.38,-39.13 87.38,-87.38 V 2523.3" id="path92"/>
    </clipPath>
    <linearGradient x1="0" y1="0" x2="1" y2="0" gradientUnits="userSpaceOnUse" gradientTransform="matrix(3704.19,2138.61,2138.61,-3704.19,1927.99,1979.16)" spreadMethod="pad" id="linearGradient116">
      <stop style="stop-opacity:1;stop-color:#000000" offset="0" id="stop96"/>
      <stop style="stop-opacity:1;stop-color:#000000" offset="0.08218243" id="stop98"/>
      <stop style="stop-opacity:1;stop-color:#545454" offset="0.374096" id="stop100"/>
      <stop style="stop-opacity:1;stop-color:#000000" offset="0.39826309" id="stop102"/>
      <stop style="stop-opacity:1;stop-color:#000000" offset="0.41656" id="stop104"/>
      <stop style="stop-opacity:1;stop-color:#828282" offset="0.719043" id="stop106"/>
      <stop style="stop-opacity:1;stop-color:#070707" offset="0.72573359" id="stop108"/>
      <stop style="stop-opacity:1;stop-color:#070707" offset="0.752344" id="stop110"/>
      <stop style="stop-opacity:1;stop-color:#000000" offset="0.8021012" id="stop112"/>
      <stop style="stop-opacity:1;stop-color:#000000" offset="1" id="stop114"/>
    </linearGradient>
    <clipPath clipPathUnits="userSpaceOnUse" id="clipPath508">
      <path d="M 6877.67,935.762 H 4403.15 V 2468.68 c 0,30.17 24.45,54.62 54.61,54.62 h 1102.14 87.38 1175.78 c 30.16,0 54.61,-24.45 54.61,-54.62 V 935.762 m -254.44,54.617 h 199.83 V 2468.69 H 4457.76 V 990.379 h 199.83 499.81 233.11 499.8 233.11 499.81" id="path506"/>
    </clipPath>
    <linearGradient x1="0" y1="0" x2="1" y2="0" gradientUnits="userSpaceOnUse" gradientTransform="matrix(2526.01,1458.39,1458.39,-2526.01,4373.75,986.69)" spreadMethod="pad" id="linearGradient530">
      <stop style="stop-opacity:1;stop-color:#000000" offset="0" id="stop510"/>
      <stop style="stop-opacity:1;stop-color:#000000" offset="0.08218243" id="stop512"/>
      <stop style="stop-opacity:1;stop-color:#545454" offset="0.374096" id="stop514"/>
      <stop style="stop-opacity:1;stop-color:#000000" offset="0.39826309" id="stop516"/>
      <stop style="stop-opacity:1;stop-color:#000000" offset="0.41656" id="stop518"/>
      <stop style="stop-opacity:1;stop-color:#828282" offset="0.719043" id="stop520"/>
      <stop style="stop-opacity:1;stop-color:#070707" offset="0.72573359" id="stop522"/>
      <stop style="stop-opacity:1;stop-color:#070707" offset="0.752344" id="stop524"/>
      <stop style="stop-opacity:1;stop-color:#000000" offset="0.8021012" id="stop526"/>
      <stop style="stop-opacity:1;stop-color:#000000" offset="1" id="stop528"/>
    </linearGradient>
    <clipPath clipPathUnits="userSpaceOnUse" id="clipPath542">
      <path d="M 6980.62,811.531 H 4300.2 c -34.68,0 -62.79,28.11 -62.79,62.789 v 53.039 c 0,4.641 3.76,8.403 8.4,8.403 h 2789.2 c 4.64,0 8.4,-3.762 8.4,-8.403 V 874.32 c 0,-34.679 -28.11,-62.789 -62.79,-62.789" id="path540"/>
    </clipPath>
    <radialGradient fx="0" fy="0" cx="0" cy="0" r="1" gradientUnits="userSpaceOnUse" gradientTransform="matrix(1470.81,0,0,-486.027,5640.41,1009.53)" spreadMethod="pad" id="radialGradient550">
      <stop style="stop-opacity:1;stop-color:#dedede" offset="0" id="stop544"/>
      <stop style="stop-opacity:1;stop-color:#dedede" offset="0.01426361" id="stop546"/>
      <stop style="stop-opacity:1;stop-color:#aeaeae" offset="1" id="stop548"/>
    </radialGradient>
    <clipPath clipPathUnits="userSpaceOnUse" id="clipPath560">
      <path d="m 5891.9,886.691 h -502.98 c -9.54,0 -17.27,7.731 -17.27,17.27 v 29.5 c 0,1.269 1.03,2.301 2.31,2.301 h 532.91 c 1.27,0 2.31,-1.032 2.31,-2.301 v -29.5 c 0,-9.539 -7.73,-17.27 -17.28,-17.27 z" id="path558"/>
    </clipPath>
    <radialGradient fx="0" fy="0" cx="0" cy="0" r="1" gradientUnits="userSpaceOnUse" gradientTransform="matrix(281.756,0,0,-191.986,5640.41,964.9)" spreadMethod="pad" id="radialGradient568">
      <stop style="stop-opacity:1;stop-color:#dedede" offset="0" id="stop562"/>
      <stop style="stop-opacity:1;stop-color:#dedede" offset="0.01426361" id="stop564"/>
      <stop style="stop-opacity:1;stop-color:#aeaeae" offset="1" id="stop566"/>
    </radialGradient>
    <clipPath clipPathUnits="userSpaceOnUse" id="clipPath972">
      <path d="M 2152.09,919.82 H 627.406 c -28.484,0 -51.566,23.102 -51.566,51.578 V 3005.3 c 0,28.48 23.082,51.57 51.566,51.57 h 1297.174 87.38 140.13 c 28.49,0 51.57,-23.09 51.57,-51.57 v -932.86 -87.38 -152.92 -860.742 c 0,-28.476 -23.08,-51.578 -51.57,-51.578 M 627.406,3005.3 V 971.398 H 2152.09 V 3005.3 H 627.406" id="path970"/>
    </clipPath>
    <linearGradient x1="0" y1="0" x2="1" y2="0" gradientUnits="userSpaceOnUse" gradientTransform="matrix(2113.55,1220.26,1220.26,-2113.55,332.972,1378.22)" spreadMethod="pad" id="linearGradient994">
      <stop style="stop-opacity:1;stop-color:#000000" offset="0" id="stop974"/>
      <stop style="stop-opacity:1;stop-color:#000000" offset="0.08218243" id="stop976"/>
      <stop style="stop-opacity:1;stop-color:#545454" offset="0.374096" id="stop978"/>
      <stop style="stop-opacity:1;stop-color:#000000" offset="0.39826309" id="stop980"/>
      <stop style="stop-opacity:1;stop-color:#000000" offset="0.41656" id="stop982"/>
      <stop style="stop-opacity:1;stop-color:#828282" offset="0.719043" id="stop984"/>
      <stop style="stop-opacity:1;stop-color:#070707" offset="0.72573359" id="stop986"/>
      <stop style="stop-opacity:1;stop-color:#070707" offset="0.752344" id="stop988"/>
      <stop style="stop-opacity:1;stop-color:#000000" offset="0.8021012" id="stop990"/>
      <stop style="stop-opacity:1;stop-color:#000000" offset="1" id="stop992"/>
    </linearGradient>
    <clipPath clipPathUnits="userSpaceOnUse" id="clipPath1652">
      <path d="m 3053.32,617.242 h -433.43 c -56.7,0 -102.66,45.949 -102.66,102.649 V 1825.85 c 0,2.11 0.06,4.21 0.19,6.29 3.24,53.77 47.88,96.37 102.47,96.37 h 433.43 c 54.59,0 99.23,-42.6 102.48,-96.37 0.12,-2.08 0.19,-4.18 0.19,-6.29 v -389.56 -70.78 -108.63 -536.989 c 0,-56.7 -45.97,-102.649 -102.67,-102.649 m -497.37,107.297 v 0 c 0,-32.609 26.43,-59.039 59.04,-59.039 h 443.23 c 32.61,0 59.05,26.43 59.05,59.039 v 1096.661 0 c 0,32.61 -26.44,59.04 -59.05,59.04 h -443.23 c -32.61,0 -59.04,-26.43 -59.04,-59.04 v -1096.661 0" id="path1650"/>
    </clipPath>
    <linearGradient x1="0" y1="0" x2="1" y2="0" gradientUnits="userSpaceOnUse" gradientTransform="matrix(981.815,566.851,566.851,-981.815,2345.7,989.45)" spreadMethod="pad" id="linearGradient1674">
      <stop style="stop-opacity:1;stop-color:#000000" offset="0" id="stop1654"/>
      <stop style="stop-opacity:1;stop-color:#000000" offset="0.08218243" id="stop1656"/>
      <stop style="stop-opacity:1;stop-color:#545454" offset="0.374096" id="stop1658"/>
      <stop style="stop-opacity:1;stop-color:#000000" offset="0.39826309" id="stop1660"/>
      <stop style="stop-opacity:1;stop-color:#000000" offset="0.41656" id="stop1662"/>
      <stop style="stop-opacity:1;stop-color:#828282" offset="0.849672" id="stop1664"/>
      <stop style="stop-opacity:1;stop-color:#070707" offset="0.85744511" id="stop1666"/>
      <stop style="stop-opacity:1;stop-color:#070707" offset="0.888361" id="stop1668"/>
      <stop style="stop-opacity:1;stop-color:#000000" offset="0.91079068" id="stop1670"/>
      <stop style="stop-opacity:1;stop-color:#000000" offset="1" id="stop1672"/>
    </linearGradient>
    <clipPath clipPathUnits="userSpaceOnUse" id="clipPath1684">
      <path d="m 2517.23,1601.27 v 0 c -4.47,0 -8.08,3.61 -8.08,8.08 v 54.63 c 0,4.47 3.61,8.09 8.08,8.09 z" id="path1682"/>
    </clipPath>
    <linearGradient x1="0" y1="0" x2="1" y2="0" gradientUnits="userSpaceOnUse" gradientTransform="matrix(8.07794,0,0,-8.07794,2509.15,1636.67)" spreadMethod="pad" id="linearGradient1696">
      <stop style="stop-opacity:1;stop-color:#000000" offset="0" id="stop1686"/>
      <stop style="stop-opacity:1;stop-color:#000000" offset="0.13875227" id="stop1688"/>
      <stop style="stop-opacity:1;stop-color:#828282" offset="0.631603" id="stop1690"/>
      <stop style="stop-opacity:1;stop-color:#000000" offset="0.91247475" id="stop1692"/>
      <stop style="stop-opacity:1;stop-color:#000000" offset="1" id="stop1694"/>
    </linearGradient>
    <linearGradient x1="0" y1="0" x2="1" y2="0" gradientUnits="userSpaceOnUse" gradientTransform="matrix(8.07794,0,0,-8.07794,2509.15,1504.29)" spreadMethod="pad" id="linearGradient1718">
      <stop style="stop-opacity:1;stop-color:#000000" offset="0" id="stop1708"/>
      <stop style="stop-opacity:1;stop-color:#000000" offset="0.13875227" id="stop1710"/>
      <stop style="stop-opacity:1;stop-color:#828282" offset="0.631603" id="stop1712"/>
      <stop style="stop-opacity:1;stop-color:#000000" offset="0.91247475" id="stop1714"/>
      <stop style="stop-opacity:1;stop-color:#000000" offset="1" id="stop1716"/>
    </linearGradient>
    <linearGradient x1="0" y1="0" x2="1" y2="0" gradientUnits="userSpaceOnUse" gradientTransform="matrix(8.07794,0,0,-8.07794,3155.98,1504.29)" spreadMethod="pad" id="linearGradient1740">
      <stop style="stop-opacity:1;stop-color:#000000" offset="0" id="stop1730"/>
      <stop style="stop-opacity:1;stop-color:#000000" offset="0.13875227" id="stop1732"/>
      <stop style="stop-opacity:1;stop-color:#828282" offset="0.631603" id="stop1734"/>
      <stop style="stop-opacity:1;stop-color:#000000" offset="0.91247475" id="stop1736"/>
      <stop style="stop-opacity:1;stop-color:#000000" offset="1" id="stop1738"/>
    </linearGradient>
  </defs>
  <g id="g8" inkscape:groupmode="layer" inkscape:label="ink_ext_XXXXXX" transform="matrix(1.3333333,0,0,-1.3333333,0,666.66667)">
    <g id="g10" transform="scale(0.1)">
      
      <g id="g30">
        <g id="g32" clip-path="url(#clipPath36)">
          <path d="m 4231.93,1436.29 h -892 l 56.13,422.56 h 779.75 l 56.12,-422.56" style="fill:url(#linearGradient48);fill-opacity:1;fill-rule:nonzero;stroke:none" id="path50"/>
        </g>
      </g>
      <g id="g52">
        <g id="g54" clip-path="url(#clipPath58)">
          <path d="m 3155.99,1365.51 h 1247.16 v 70.7773 H 3155.99 Z" style="fill:url(#radialGradient66);fill-opacity:1;fill-rule:nonzero;stroke:none" id="path68"/>
        </g>
      </g>
      <g id="g70">
        <g id="g72" clip-path="url(#clipPath76)">
          <path d="M 4403.15,1832.14 H 3155.8 c -3.25,53.77 -47.89,96.37 -102.48,96.37 h -433.43 c -54.59,0 -99.23,-42.6 -102.47,-96.37 h -313.76 v 152.92 h 2199.49 v -152.92" style="fill:url(#radialGradient84);fill-opacity:1;fill-rule:nonzero;stroke:none" id="path86"/>
        </g>
      </g>
      <g id="g88">
        <g id="g90" clip-path="url(#clipPath94)">
          <path d="M 4403.15,1985.06 H 2203.66 v 87.38 h 2199.49 v -87.38 M 5647.28,2523.3 H 5559.9 V 4068.16 H 2011.96 V 3056.87 h -87.38 v 858.37 152.92 c 0,48.25 39.12,87.38 87.38,87.38 H 5559.9 c 48.26,0 87.38,-39.13 87.38,-87.38 V 2523.3" style="fill:url(#linearGradient116);fill-opacity:1;fill-rule:nonzero;stroke:none" id="path118"/>
        </g>
      </g>
      
      <g id="g502">
        <g id="g504" clip-path="url(#clipPath508)">
          <path d="M 6877.67,935.762 H 4403.15 V 2468.68 c 0,30.17 24.45,54.62 54.61,54.62 h 1102.14 87.38 1175.78 c 30.16,0 54.61,-24.45 54.61,-54.62 V 935.762 m -254.44,54.617 h 199.83 V 2468.69 H 4457.76 V 990.379 h 199.83 499.81 233.11 499.8 233.11 499.81" style="fill:url(#linearGradient530);fill-opacity:1;fill-rule:nonzero;stroke:none" id="path532"/>
        </g>
      </g>
      
      <g id="g536">
        <g id="g538" clip-path="url(#clipPath542)">
          <path d="M 6980.62,811.531 H 4300.2 c -34.68,0 -62.79,28.11 -62.79,62.789 v 53.039 c 0,4.641 3.76,8.403 8.4,8.403 h 2789.2 c 4.64,0 8.4,-3.762 8.4,-8.403 V 874.32 c 0,-34.679 -28.11,-62.789 -62.79,-62.789" style="fill:url(#radialGradient550);fill-opacity:1;fill-rule:nonzero;stroke:none" id="path552"/>
        </g>
      </g>
      <g id="g554">
        <g id="g556" clip-path="url(#clipPath560)">
          <path d="m 5891.9,886.691 h -502.98 c -9.54,0 -17.27,7.731 -17.27,17.27 v 29.5 c 0,1.269 1.03,2.301 2.31,2.301 h 532.91 c 1.27,0 2.31,-1.032 2.31,-2.301 v -29.5 c 0,-9.539 -7.73,-17.27 -17.28,-17.27" style="fill:url(#radialGradient568);fill-opacity:1;fill-rule:nonzero;stroke:none" id="path570"/>
        </g>
      </g>
      
      <g id="g966">
        <g id="g968" clip-path="url(#clipPath972)">
          <path d="M 2152.09,919.82 H 627.406 c -28.484,0 -51.566,23.102 -51.566,51.578 V 3005.3 c 0,28.48 23.082,51.57 51.566,51.57 h 1297.174 87.38 140.13 c 28.49,0 51.57,-23.09 51.57,-51.57 v -932.86 -87.38 -152.92 -860.742 c 0,-28.476 -23.08,-51.578 -51.57,-51.578 M 627.406,3005.3 V 971.398 H 2152.09 V 3005.3 H 627.406" style="fill:url(#linearGradient994);fill-opacity:1;fill-rule:nonzero;stroke:none" id="path996"/>
        </g>
      </g>     
      
      <g id="g1646">
        <g id="g1648" clip-path="url(#clipPath1652)">
          <path d="m 3053.32,617.242 h -433.43 c -56.7,0 -102.66,45.949 -102.66,102.649 V 1825.85 c 0,2.11 0.06,4.21 0.19,6.29 3.24,53.77 47.88,96.37 102.47,96.37 h 433.43 c 54.59,0 99.23,-42.6 102.48,-96.37 0.12,-2.08 0.19,-4.18 0.19,-6.29 v -389.56 -70.78 -108.63 -536.989 c 0,-56.7 -45.97,-102.649 -102.67,-102.649 m -497.37,107.297 v 0 c 0,-32.609 26.43,-59.039 59.04,-59.039 h 443.23 c 32.61,0 59.05,26.43 59.05,59.039 v 1096.661 0 c 0,32.61 -26.44,59.04 -59.05,59.04 h -443.23 c -32.61,0 -59.04,-26.43 -59.04,-59.04 v -1096.661 0" style="fill:url(#linearGradient1674);fill-opacity:1;fill-rule:nonzero;stroke:none" id="path1676"/>
        </g>
      </g>
      <g id="g1678">
        <g id="g1680" clip-path="url(#clipPath1684)">
          <path d="m 2517.23,1601.27 v 0 c -4.47,0 -8.08,3.61 -8.08,8.08 v 54.63 c 0,4.47 3.61,8.09 8.08,8.09 v -70.8" style="fill:url(#linearGradient1696);fill-opacity:1;fill-rule:nonzero;stroke:none" id="path1698"/>
        </g>
      </g>
      <g id="g1700">
        <g id="g1702" clip-path="url(#clipPath1706)">
          <path d="m 2517.23,1442.08 v 0 c -4.47,0 -8.08,3.61 -8.08,8.08 v 108.27 c 0,4.46 3.61,8.07 8.08,8.07 v -124.42" style="fill:url(#linearGradient1718);fill-opacity:1;fill-rule:nonzero;stroke:none" id="path1720"/>
        </g>
      </g>
      <g id="g1722">
        <g id="g1724" clip-path="url(#clipPath1728)">
          <path d="m 3155.99,1566.5 v 0 c 4.45,0 8.07,-3.61 8.07,-8.07 v -108.27 c 0,-4.47 -3.62,-8.08 -8.07,-8.08 v 124.42" style="fill:url(#linearGradient1740);fill-opacity:1;fill-rule:nonzero;stroke:none" id="path1742"/>
        </g>
      </g>
      
    </g>
  </g>
</svg>